<svg width="98" height="48" viewBox="0 0 98 48" fill="none" xmlns="http://www.w3.org/2000/svg">
<path d="M33.72 24.4921C33.72 22.5721 34.176 21.1321 35.088 20.1721C36.016 19.1961 37.24 18.7081 38.76 18.7081H39V20.9881H38.76C37.896 20.9881 37.232 21.2761 36.768 21.8521C36.304 22.4281 36.072 23.3081 36.072 24.4921V30.7561H33.72V24.4921ZM45.4219 18.5641C47.0219 18.5641 48.3019 19.0601 49.2619 20.0521C50.2219 21.0281 50.7019 22.4921 50.7019 24.4441V30.7561H48.3499V24.4441C48.3499 23.2441 48.0939 22.3481 47.5819 21.7561C47.0859 21.1481 46.3659 20.8441 45.4219 20.8441C44.4779 20.8441 43.7499 21.1401 43.2379 21.7321C42.7419 22.3241 42.4939 23.2121 42.4939 24.3961V30.7561H40.1419V13.9561H42.4939V19.8361C42.8619 19.3721 43.2859 19.0441 43.7659 18.8521C44.2459 18.6601 44.7979 18.5641 45.4219 18.5641ZM58.2139 18.5641C59.3339 18.5641 60.3659 18.8441 61.3099 19.4041C62.2699 19.9481 63.0219 20.7001 63.5659 21.6601C64.1259 22.6041 64.4059 23.6361 64.4059 24.7561C64.4059 25.8761 64.1259 26.9161 63.5659 27.8761C63.0219 28.8201 62.2699 29.5721 61.3099 30.1321C60.3659 30.6761 59.3339 30.9481 58.2139 30.9481C57.0939 30.9481 56.0539 30.6761 55.0939 30.1321C54.1499 29.5721 53.3979 28.8201 52.8379 27.8761C52.2939 26.9161 52.0219 25.8761 52.0219 24.7561C52.0219 23.6361 52.2939 22.6041 52.8379 21.6601C53.3979 20.7001 54.1499 19.9481 55.0939 19.4041C56.0539 18.8441 57.0939 18.5641 58.2139 18.5641ZM58.2379 20.8441C57.5179 20.8441 56.8619 21.0201 56.2699 21.3721C55.6779 21.7081 55.2139 22.1801 54.8779 22.7881C54.5419 23.3801 54.3739 24.0361 54.3739 24.7561C54.3739 25.4761 54.5419 26.1401 54.8779 26.7481C55.2299 27.3401 55.6939 27.8121 56.2699 28.1641C56.8619 28.5001 57.5179 28.6681 58.2379 28.6681C58.9579 28.6681 59.6059 28.5001 60.1819 28.1641C60.7579 27.8121 61.2139 27.3401 61.5499 26.7481C61.8859 26.1401 62.0539 25.4761 62.0539 24.7561C62.0539 24.0361 61.8859 23.3801 61.5499 22.7881C61.2299 22.1801 60.7739 21.7081 60.1819 21.3721C59.6059 21.0201 58.9579 20.8441 58.2379 20.8441ZM70.1996 30.9481C69.3516 30.9481 68.5676 30.8041 67.8476 30.5161C67.1436 30.2121 66.5756 29.7721 66.1436 29.1961C65.7116 28.6201 65.4956 27.9401 65.4956 27.1561H67.7516C67.7516 27.6681 67.9836 28.0761 68.4476 28.3801C68.9276 28.6841 69.5276 28.8361 70.2476 28.8361C70.9836 28.8361 71.5516 28.6921 71.9516 28.4041C72.3516 28.1161 72.5516 27.7321 72.5516 27.2521C72.5516 26.7241 72.3276 26.3481 71.8796 26.1241C71.4316 25.9001 70.7356 25.6841 69.7916 25.4761C68.9276 25.2841 68.2236 25.0921 67.6796 24.9001C67.1356 24.6921 66.6636 24.3561 66.2636 23.8921C65.8796 23.4121 65.6876 22.7641 65.6876 21.9481C65.6876 21.2921 65.8796 20.7081 66.2636 20.1961C66.6636 19.6841 67.1996 19.2841 67.8716 18.9961C68.5596 18.7081 69.3116 18.5641 70.1276 18.5641C71.4076 18.5641 72.4556 18.8841 73.2716 19.5241C74.1036 20.1641 74.5196 21.0441 74.5196 22.1641H72.2636C72.2636 21.7161 72.0476 21.3561 71.6156 21.0841C71.1996 20.7961 70.6876 20.6521 70.0796 20.6521C69.4876 20.6521 68.9996 20.7881 68.6156 21.0601C68.2316 21.3321 68.0396 21.6841 68.0396 22.1161C68.0396 22.5641 68.2476 22.8921 68.6636 23.1001C69.0796 23.2921 69.7356 23.4921 70.6316 23.7001C71.5116 23.8921 72.2396 24.0921 72.8156 24.3001C73.3916 24.5081 73.8796 24.8601 74.2796 25.3561C74.6956 25.8361 74.9036 26.5001 74.9036 27.3481C74.9036 28.5161 74.4636 29.4121 73.5836 30.0361C72.7196 30.6441 71.5916 30.9481 70.1996 30.9481ZM84.303 18.7561V25.0681C84.303 26.2681 84.047 27.1721 83.535 27.7801C83.039 28.3721 82.319 28.6681 81.375 28.6681C80.431 28.6681 79.703 28.3721 79.191 27.7801C78.695 27.1721 78.447 26.2681 78.447 25.0681V18.7561H76.095V25.0681C76.095 27.0201 76.575 28.4921 77.535 29.4841C78.495 30.4601 79.775 30.9481 81.375 30.9481C82.975 30.9481 84.255 30.4601 85.215 29.4841C86.175 28.4921 86.655 27.0201 86.655 25.0681V18.7561H84.303ZM92.559 30.9481C91.711 30.9481 90.927 30.8041 90.207 30.5161C89.503 30.2121 88.935 29.7721 88.503 29.1961C88.071 28.6201 87.855 27.9401 87.855 27.1561H90.111C90.111 27.6681 90.343 28.0761 90.807 28.3801C91.287 28.6841 91.887 28.8361 92.607 28.8361C93.343 28.8361 93.911 28.6921 94.311 28.4041C94.711 28.1161 94.911 27.7321 94.911 27.2521C94.911 26.7241 94.687 26.3481 94.239 26.1241C93.791 25.9001 93.095 25.6841 92.151 25.4761C91.287 25.2841 90.583 25.0921 90.039 24.9001C89.495 24.6921 89.023 24.3561 88.623 23.8921C88.239 23.4121 88.047 22.7641 88.047 21.9481C88.047 21.2921 88.239 20.7081 88.623 20.1961C89.023 19.6841 89.559 19.2841 90.231 18.9961C90.919 18.7081 91.671 18.5641 92.487 18.5641C93.767 18.5641 94.815 18.8841 95.631 19.5241C96.463 20.1641 96.879 21.0441 96.879 22.1641H94.623C94.623 21.7161 94.407 21.3561 93.975 21.0841C93.559 20.7961 93.047 20.6521 92.439 20.6521C91.847 20.6521 91.359 20.7881 90.975 21.0601C90.591 21.3321 90.399 21.6841 90.399 22.1161C90.399 22.5641 90.607 22.8921 91.023 23.1001C91.439 23.2921 92.095 23.4921 92.991 23.7001C93.871 23.8921 94.599 24.0921 95.175 24.3001C95.751 24.5081 96.239 24.8601 96.639 25.3561C97.055 25.8361 97.263 26.5001 97.263 27.3481C97.263 28.5161 96.823 29.4121 95.943 30.0361C95.079 30.6441 93.951 30.9481 92.559 30.9481Z" fill="white"/>
<path d="M7.81182 21.5339C9.23642 19.0664 9.94871 17.8327 10.7455 17.225C12.5363 15.8591 15.0192 15.8591 16.81 17.225C17.6068 17.8327 18.3191 19.0664 19.7437 21.5339C21.1683 24.0014 21.8806 25.2351 22.0085 26.229C22.296 28.4628 21.0545 30.6131 18.9763 31.481C18.0516 31.8672 16.627 31.8672 13.7778 31.8672C10.9286 31.8672 9.504 31.8672 8.57928 31.481C6.50102 30.6131 5.25955 28.4628 5.54702 26.229C5.67494 25.2351 6.38723 24.0014 7.81182 21.5339Z" fill="#EB3637" fill-opacity="0.8"/>
<path d="M13.4596 18.4142C14.8871 15.8791 15.6008 14.6115 16.4012 13.9922C18.2029 12.598 20.7193 12.598 22.521 13.9922C23.3213 14.6115 24.0351 15.8791 25.4626 18.4142C26.8447 20.8686 27.5357 22.0958 27.6545 23.0848C27.9217 25.3096 26.6761 27.4406 24.6063 28.2994C23.6863 28.6811 22.2779 28.6811 19.4611 28.6811C16.6443 28.6811 15.2359 28.6811 14.3158 28.2994C12.2461 27.4406 11.0004 25.3096 11.2677 23.0848C11.3865 22.0958 12.0775 20.8686 13.4596 18.4142Z" fill="#EB3637" fill-opacity="0.8"/>
</svg>
